<?xml version="1.0" standalone="no"?>
<!DOCTYPE svg PUBLIC "-//W3C//DTD SVG 20010904//EN"
 "http://www.w3.org/TR/2001/REC-SVG-20010904/DTD/svg10.dtd">
<svg version="1.0" xmlns="http://www.w3.org/2000/svg"
 width="526.000000pt" height="394.000000pt" viewBox="0 0 526.000000 394.000000"
 preserveAspectRatio="xMidYMid meet">
<metadata>
Created by potrace 1.11, written by Peter Selinger 2001-2013
</metadata>
<g transform="translate(0.000000,394.000000) scale(0.100000,-0.100000)"
fill="#000000" stroke="none">
<path d="M5055 3923 c-30 -8 -55 -34 -55 -58 0 -31 11 -37 32 -18 17 15 20 15
28 3 8 -12 10 -10 10 8 0 24 19 29 38 10 14 -14 16 -78 3 -78 -4 0 -22 5 -40
11 -23 8 -35 8 -45 0 -7 -6 -16 -8 -19 -4 -4 3 -7 -3 -7 -15 0 -42 75 -69 102
-36 36 43 51 55 64 50 13 -5 19 10 15 42 -2 10 33 18 62 13 4 0 7 6 7 14 0 15
-15 19 -61 16 -18 -1 -31 6 -43 24 -16 25 -42 30 -91 18z"/>
<path d="M3789 2940 c-9 -5 -42 -8 -75 -6 -32 2 -68 0 -79 -5 -11 -4 -29 -11
-40 -15 -29 -11 103 -23 134 -12 15 5 28 4 37 -3 8 -7 30 -13 50 -15 27 -2 34
1 30 12 -6 17 -5 17 28 4 14 -5 26 -16 26 -25 0 -8 3 -15 8 -16 4 0 18 -2 32
-4 14 -1 54 -6 90 -10 58 -6 68 -11 95 -43 32 -36 32 -36 116 -36 130 0 197
12 252 47 l48 31 -28 12 -28 12 29 11 c17 7 47 9 72 5 32 -4 47 -2 58 9 14 13
14 16 0 21 -9 3 -20 4 -24 1 -12 -8 -221 -7 -267 0 -28 5 -34 4 -23 -4 12 -9
10 -11 -10 -11 -18 0 -21 -3 -11 -9 24 -16 -3 -19 -128 -16 -111 3 -127 6
-140 24 -31 39 -201 64 -201 29 0 -6 -8 -4 -18 5 -11 10 -22 13 -33 7z"/>
<path d="M4960 2816 c0 -18 41 -35 122 -48 39 -7 73 -18 75 -25 3 -8 24 -13
54 -13 l49 0 0 44 c0 31 -5 46 -16 50 -23 9 -69 7 -98 -4 -14 -5 -26 -6 -26
-2 0 4 -36 8 -80 9 -59 1 -80 -2 -80 -11z"/>
<path d="M565 2693 c-44 -8 -81 -18 -83 -23 -2 -5 -13 -4 -24 3 -16 9 -22 9
-25 0 -7 -18 -66 -16 -100 3 -26 15 -31 15 -78 -4 l-49 -19 74 -6 c41 -3 125
-3 185 -1 61 2 148 3 195 4 84 0 85 0 55 16 -16 9 -34 23 -38 30 -9 16 -8 16
-112 -3z"/>
<path d="M3940 2690 c-8 -5 -40 -10 -70 -9 -30 0 -77 -6 -105 -13 -41 -12 -46
-16 -30 -23 11 -5 69 -9 129 -10 90 -2 110 -5 118 -19 5 -9 13 -14 18 -11 5 3
41 6 80 6 38 0 72 5 76 10 9 15 -2 22 -38 24 -18 1 -42 5 -52 10 -18 8 -18 9
0 22 16 12 15 13 -12 13 -16 0 -45 3 -64 5 -19 3 -42 1 -50 -5z"/>
<path d="M2292 2650 c-27 -27 -43 -33 -103 -41 -39 -6 -80 -8 -92 -6 -12 2 -3
5 21 6 30 1 42 5 42 16 0 24 -72 19 -104 -6 -21 -17 -39 -21 -79 -20 -71 3
-66 4 -117 -9 -25 -6 -75 -10 -112 -8 -41 2 -70 -1 -72 -7 -2 -5 -5 -2 -5 8
-1 9 -8 17 -17 17 -9 0 -22 8 -29 17 -11 15 -13 15 -19 -5 -5 -15 -1 -28 14
-44 21 -22 44 -58 38 -58 -2 -1 -38 -7 -80 -14 -52 -10 -89 -11 -115 -5 -21 5
-104 6 -188 1 -336 -16 -475 -2 -475 50 0 20 -25 22 -118 9 -38 -5 -58 -4 -70
6 -15 11 -15 14 -2 22 21 14 10 19 -34 13 -23 -3 -33 -7 -26 -12 8 -5 -4 -11
-31 -15 -24 -4 -65 -16 -91 -26 -28 -11 -47 -14 -45 -8 1 6 -6 16 -16 22 -15
10 -21 8 -37 -13 -10 -14 -22 -21 -27 -16 -4 5 -2 11 5 13 29 11 9 21 -23 12
-19 -6 -39 -8 -44 -5 -5 3 -23 1 -41 -5 -21 -8 -34 -8 -39 -2 -7 12 -51 -2
-51 -16 0 -5 -13 -3 -30 5 -16 9 -40 14 -52 12 -22 -3 -23 -8 -26 -93 -3 -90
-3 -90 26 -107 16 -10 32 -15 35 -12 3 4 29 8 58 10 44 4 57 0 85 -21 59 -45
37 -85 -45 -85 -23 0 -46 7 -56 16 -12 13 -19 14 -30 4 -8 -7 -24 -10 -35 -7
-28 7 -25 0 10 -30 49 -41 71 -108 55 -168 -9 -34 -85 -155 -97 -155 -4 0 -8
-108 -8 -240 l0 -240 167 2 167 3 30 61 c35 70 55 96 66 89 5 -3 19 -1 32 4
23 10 23 10 -4 10 -16 1 -28 4 -28 9 0 15 83 103 112 118 21 11 67 17 137 20
58 2 113 6 121 9 28 9 404 45 618 60 118 9 233 19 256 25 57 12 695 24 678 12
-17 -11 54 -19 308 -32 102 -5 237 -16 300 -24 63 -8 183 -17 267 -20 136 -5
156 -8 199 -31 52 -28 58 -30 49 -15 -4 7 7 9 29 6 21 -3 34 -1 30 5 -3 5 -10
7 -15 4 -5 -4 -9 -1 -9 5 0 6 7 13 15 17 16 6 421 -9 750 -28 368 -20 727 -55
781 -76 15 -5 36 -40 54 -89 10 -27 10 -27 -30 -20 -22 3 -40 4 -40 2 0 -20
29 -60 51 -71 22 -12 28 -23 34 -70 3 -31 3 -101 -1 -156 l-7 -100 -38 -31
c-40 -32 -57 -78 -21 -59 9 5 27 19 39 30 38 36 46 27 40 -38 -2 -32 -1 -65 4
-72 5 -8 9 -10 9 -5 0 5 6 4 13 -1 6 -5 19 -9 27 -8 8 0 17 -2 20 -6 3 -3 15
-9 28 -13 l22 -7 0 135 0 136 -61 0 c-59 0 -61 1 -55 22 3 13 6 53 6 90 l0 67
55 -5 55 -6 0 508 c0 308 -4 504 -9 499 -5 -6 -11 -21 -13 -34 -1 -13 -11 -29
-21 -35 -15 -9 -22 -7 -37 12 -10 12 -22 22 -27 22 -5 0 -15 16 -22 35 -7 20
-17 32 -23 29 -6 -4 -5 -9 3 -15 11 -7 10 -11 -6 -23 -11 -9 -15 -16 -10 -16
6 0 3 -5 -5 -11 -12 -8 -10 -10 10 -7 23 4 25 2 22 -26 -3 -25 -11 -34 -40
-46 -50 -20 -98 -15 -105 12 -5 19 -7 20 -23 4 -18 -19 -42 -16 -103 11 -38
17 -123 18 -129 2 -7 -18 -32 13 -32 39 0 14 -5 41 -12 59 -10 28 -17 33 -45
33 -23 0 -33 5 -33 16 0 11 -6 14 -20 9 -16 -5 -20 -2 -20 15 0 16 4 20 19 15
17 -5 19 -1 18 35 -1 22 -4 40 -7 40 -9 0 -40 -80 -40 -104 0 -13 7 -27 16
-30 9 -3 14 -15 12 -28 -2 -13 -6 -21 -9 -18 -4 3 -16 -3 -28 -14 -18 -16 -23
-17 -37 -5 -10 8 -26 13 -36 11 -11 -2 -27 7 -39 22 -26 32 -36 33 -51 1 -11
-25 -41 -34 -53 -15 -3 6 -14 10 -25 10 -10 0 -21 7 -24 16 -9 24 -8 27 11 20
27 -11 113 25 113 46 0 17 -16 23 -48 19 -7 -1 -25 7 -40 17 -15 11 -38 25
-50 31 -22 12 -23 11 -17 -8 5 -17 2 -21 -16 -21 -19 0 -20 2 -8 16 12 15 7
16 -61 9 -41 -4 -79 -11 -85 -15 -5 -5 -30 -5 -55 0 -48 9 -60 6 -60 -14 0
-17 -33 -46 -53 -46 -9 0 -20 -8 -26 -17 -7 -14 -24 -17 -96 -16 -48 1 -99 6
-114 11 -14 6 -55 13 -91 16 -36 4 -66 11 -68 16 -2 6 -10 10 -18 10 -9 0 -12
-4 -9 -10 3 -5 1 -10 -4 -10 -6 0 -11 5 -11 10 0 6 -8 10 -19 10 -14 0 -17 6
-13 26 4 24 2 26 -19 19 -13 -4 -33 -13 -45 -20 -15 -10 -79 -15 -215 -18
-107 -3 -196 -6 -199 -7 -3 -1 6 -6 20 -10 24 -8 24 -8 3 -9 -13 -1 -23 -4
-23 -8 0 -5 134 -8 298 -8 335 0 446 -13 880 -100 178 -35 483 -121 575 -161
31 -14 61 -23 66 -19 5 3 13 0 17 -6 4 -7 3 -9 -4 -5 -5 3 -12 2 -14 -4 -2 -6
-24 -2 -55 10 -171 65 -683 163 -1178 226 -269 34 -999 -1 -1223 -60 -29 -7
-52 -10 -52 -7 0 13 135 50 255 71 160 27 167 29 160 40 -4 6 25 7 75 3 l81
-6 -7 29 c-4 16 -11 35 -17 42 -11 14 -67 16 -67 2 0 -6 -30 -10 -69 -10 -39
0 -73 5 -76 10 -3 6 -30 10 -58 10 -63 0 -97 23 -100 65 -2 28 1 29 48 38 69
11 74 22 21 39 -25 9 -46 11 -46 7 0 -5 -7 -9 -15 -9 -8 0 -15 5 -15 10 0 14
-27 12 -33 -2 -4 -10 -6 -10 -6 0 -1 7 -15 12 -35 12 -19 0 -36 5 -38 11 -2 7
-18 -3 -36 -21z m-1573 -167 c3 -6 34 -13 69 -17 77 -9 92 -14 92 -32 0 -10
-12 -14 -40 -14 -23 0 -40 5 -40 11 0 7 -7 8 -17 4 -41 -18 -140 -34 -171 -29
-18 4 -31 9 -28 12 3 3 1 11 -4 17 -14 17 -4 40 23 54 25 12 106 8 116 -6z
m1471 -272 c0 -5 -7 -17 -16 -25 -9 -9 -11 -16 -4 -16 6 0 8 -5 5 -10 -4 -6
-12 -7 -18 -3 -7 3 -4 -2 5 -13 9 -11 14 -24 10 -29 -12 -17 -90 -75 -101 -75
-6 0 -11 -4 -11 -8 0 -11 -116 -102 -130 -102 -14 0 -13 13 2 28 8 8 8 12 1
12 -6 0 -16 -13 -21 -29 -9 -26 -55 -51 -69 -37 -3 3 6 8 21 12 14 3 23 10 20
16 -3 5 2 16 12 24 17 14 17 15 2 10 -10 -3 -18 -1 -18 4 0 9 14 14 33 11 4 0
7 3 7 8 0 22 -18 18 -49 -8 -31 -27 -32 -29 -15 -40 17 -9 17 -10 2 -11 -10 0
-18 5 -18 10 0 6 -28 -12 -62 -40 -96 -77 -90 -59 9 25 131 113 200 165 207
158 3 -4 -14 -20 -39 -35 -43 -27 -52 -48 -20 -48 9 0 12 6 9 15 -8 20 11 19
42 -1 14 -10 24 -13 23 -8 -1 5 -1 17 0 28 1 15 4 16 16 6 12 -10 16 -9 21 3
3 9 14 19 25 22 10 4 19 11 19 16 0 6 -4 7 -10 4 -5 -3 -10 -2 -10 3 0 17 13
22 27 10 11 -8 17 -7 28 8 18 23 14 38 -11 43 -16 3 -17 1 -5 -13 12 -14 10
-16 -13 -16 -14 0 -26 5 -26 11 0 5 -5 7 -11 3 -8 -5 -8 -9 1 -14 15 -9 -2
-22 -22 -17 -7 2 -10 2 -5 0 4 -3 7 -12 7 -21 -1 -16 -2 -16 -14 0 -7 10 -17
14 -21 10 -5 -4 -5 -2 -2 5 4 6 31 27 59 47 29 19 64 44 78 55 27 22 50 27 50
12z"/>
<path d="M1580 1593 l-216 -3 -17 -29 c-9 -16 -30 -40 -46 -53 -42 -36 -65
-77 -67 -117 0 -20 -4 -44 -9 -53 -7 -17 13 -18 331 -18 187 0 344 4 351 8 6
4 33 36 60 72 51 68 45 65 176 90 61 12 79 29 92 83 l7 27 -223 -2 c-123 -2
-321 -4 -439 -5z m-31 -50 c-26 -35 -53 -52 -61 -40 -6 9 -8 9 -8 0 0 -16 61
-48 69 -36 3 4 16 9 29 10 42 5 83 -30 50 -42 -56 -19 -70 -26 -65 -31 10 -10
145 -17 200 -10 64 8 128 43 106 57 -12 8 -12 10 1 19 12 8 13 13 3 30 -20 32
-16 38 35 45 114 15 193 17 209 3 13 -10 17 -10 20 0 5 14 33 17 33 3 0 -19
-32 -41 -58 -41 -57 0 -98 -20 -150 -74 l-51 -53 -105 -7 c-58 -4 -183 -6
-278 -5 -162 2 -174 3 -192 23 -15 17 -18 17 -13 4 4 -10 2 -18 -3 -18 -17 0
-21 39 -6 68 18 35 33 42 87 42 32 0 45 6 65 29 22 27 40 35 83 40 11 1 11 -2
0 -16z"/>
<path d="M671 1582 l-184 -2 6 -35 c3 -19 1 -37 -4 -40 -5 -4 -9 -17 -9 -31 0
-13 -4 -24 -10 -24 -5 0 -10 -11 -10 -25 0 -14 -5 -25 -10 -25 -6 0 -8 -13 -5
-30 4 -25 2 -30 -15 -30 -28 0 -25 -28 4 -36 30 -7 495 -20 608 -16 l87 3 62
120 c34 65 73 131 86 145 12 14 23 27 23 30 0 4 -190 3 -629 -4z"/>
<path d="M3144 1483 c4 -60 2 -182 -4 -273 -24 -373 -24 -399 -7 -406 22 -8
962 49 1184 72 60 7 86 25 65 46 -4 4 -103 2 -218 -7 -289 -21 -705 -45 -769
-45 -52 0 -53 0 -59 34 -4 18 -2 74 4 122 15 125 24 438 16 507 l-7 57 -106 0
-105 0 6 -107z"/>
<path d="M2492 1302 c-76 -25 -174 -102 -236 -185 -116 -155 -185 -342 -221
-593 -9 -60 -23 -129 -32 -153 l-16 -44 -171 6 c-94 3 -187 10 -206 16 -32 10
-177 23 -385 35 -44 3 -81 5 -82 5 -1 1 -22 27 -45 58 -73 97 -58 91 -250 108
-123 12 -176 21 -184 31 -13 16 -41 19 -46 4 -3 -9 -159 8 -236 25 -24 6 -67
-29 -104 -83 -15 -22 -17 -23 -52 -8 -28 12 -36 21 -36 41 0 14 5 34 12 45 12
18 13 18 24 -8 l12 -27 1 32 c1 23 -4 33 -19 38 -19 6 -20 12 -14 123 4 64 8
119 10 121 2 2 4 -32 4 -77 0 -45 0 -84 0 -87 0 -7 38 -45 45 -45 3 0 14 -9
25 -20 45 -45 45 -29 9 189 -10 62 -19 124 -19 138 0 13 -7 26 -15 28 -32 10
-40 12 -50 13 -5 0 -13 10 -17 22 -6 15 -14 21 -27 17 -11 -2 -38 -1 -60 3
-37 7 -41 5 -41 -14 0 -13 -3 -17 -8 -9 -4 6 -20 15 -35 18 -26 7 -27 5 -27
-30 0 -24 4 -34 11 -29 8 4 9 0 4 -15 -6 -21 -5 -21 97 -18 l104 3 2 -40 c1
-23 -1 -36 -5 -31 -15 19 -82 29 -99 14 -11 -9 -16 -6 -23 12 -6 16 -10 18
-10 8 -1 -17 -55 -34 -72 -23 -5 3 -9 -148 -9 -361 0 -346 1 -367 18 -360 9 3
69 8 132 10 63 2 106 2 95 -1 -11 -4 -25 -10 -31 -15 -5 -4 -27 -6 -47 -2 -20
3 -65 2 -101 -2 l-66 -7 0 -89 0 -89 501 0 c445 0 500 2 489 15 -9 11 -9 15
-1 15 6 0 14 -7 17 -15 5 -12 23 -15 83 -14 72 1 74 1 41 12 -33 11 -31 12 45
15 44 2 91 0 105 -4 l25 -7 -30 -7 c-20 -5 -1 -8 58 -9 63 -1 87 2 87 12 0 9
2 9 9 -1 6 -10 35 -13 109 -11 56 1 102 5 102 9 0 10 26 7 36 -3 4 -4 30 -7
57 -7 41 0 48 3 43 16 -4 11 -1 14 12 12 9 -2 16 -10 15 -16 -4 -16 74 -16 80
1 4 9 8 9 15 -2 8 -12 13 -12 25 -2 10 8 17 9 22 1 4 -6 61 -10 153 -10 138 0
148 1 160 21 11 17 16 19 29 7 15 -12 16 -10 10 20 l-6 32 52 1 c28 0 71 0 95
-1 29 -1 42 3 42 12 0 10 2 11 8 0 10 -15 92 -13 105 3 6 6 10 6 14 -2 2 -7
11 -13 19 -13 9 0 12 5 9 10 -3 6 -1 10 4 10 6 0 11 5 11 10 0 6 -21 10 -47
11 -65 1 -27 17 41 18 l50 1 -22 -20 c-20 -19 -21 -57 -1 -44 5 3 7 9 4 14 -8
13 22 20 93 21 47 0 61 3 47 9 -18 8 -17 9 8 9 15 1 27 -3 27 -9 0 -5 7 -10
16 -10 8 0 13 4 10 9 -7 10 52 26 61 17 4 -3 -3 -6 -15 -6 -29 0 -37 -16 -11
-23 35 -9 16 -32 -27 -33 -21 0 -56 -4 -77 -8 -22 -4 -36 -3 -35 3 2 5 -1 8
-7 8 -21 -4 -12 -27 11 -27 13 0 24 -5 24 -11 0 -11 -19 -10 -115 6 -16 3
-108 8 -202 11 -154 6 -173 5 -173 -9 0 -8 -3 -22 -6 -30 -4 -12 83 -15 652
-16 529 -2 659 1 665 11 7 10 9 10 9 1 0 -10 170 -13 815 -13 l815 0 0 401 c0
376 -1 402 -19 425 -20 25 -31 22 -31 -9 0 -19 -1 -19 -18 -4 -23 21 -32 21
-32 1 0 -13 -3 -14 -15 -4 -8 6 -18 9 -24 6 -5 -3 -11 0 -14 6 -2 7 -8 10 -12
6 -4 -4 -2 -14 4 -22 17 -20 -1 -51 -39 -71 -17 -9 -30 -14 -31 -13 0 2 -2 68
-4 148 -4 156 -22 240 -65 304 -56 80 -141 98 -222 47 -102 -65 -219 -304
-249 -507 -7 -47 -18 -84 -27 -91 -11 -9 -50 -13 -121 -12 -58 1 -214 -10
-346 -24 -132 -14 -274 -28 -315 -31 -215 -16 -567 -47 -653 -57 -53 -7 -99
-10 -102 -7 -3 3 6 47 20 99 14 52 30 135 35 184 25 217 -64 418 -224 511 -64
36 -182 44 -264 16z m191 -162 c27 -13 66 -44 89 -68 41 -44 92 -143 103 -197
3 -16 -5 -3 -18 31 -31 80 -59 125 -107 167 -56 51 -96 69 -167 75 -54 4 -70
1 -117 -22 -134 -66 -226 -241 -226 -431 0 -190 74 -341 201 -410 139 -75 299
-4 388 173 34 67 37 82 19 82 -7 0 -35 14 -63 31 -27 17 -40 27 -28 24 19 -5
23 -1 31 26 6 24 16 35 37 42 17 6 33 14 36 20 4 5 12 6 18 3 7 -5 12 8 13 41
1 45 2 46 5 9 3 -21 1 -46 -3 -55 -4 -9 -6 -36 -5 -60 1 -23 -1 -41 -6 -38 -4
3 -8 -9 -9 -27 -1 -47 -56 -158 -105 -211 -154 -167 -379 -126 -484 88 -61
125 -77 243 -50 381 40 213 184 363 340 354 38 -3 78 -13 108 -28z m2157 0
c16 0 71 -52 86 -82 9 -17 11 -27 5 -24 -7 5 -8 1 -5 -9 7 -17 -30 -76 -76
-120 -23 -22 -33 -26 -42 -17 -9 9 0 23 35 59 45 45 46 48 29 66 -16 19 -16
19 5 13 15 -5 24 -2 31 10 19 35 -45 94 -100 94 -43 0 -84 -36 -117 -101 -33
-67 -37 -84 -20 -95 7 -4 9 0 5 14 -4 11 -3 23 2 26 10 6 32 -36 32 -59 0 -8
5 -15 11 -15 5 0 9 8 8 18 -1 9 -1 26 0 37 1 17 3 18 11 5 14 -22 12 -72 -4
-93 -8 -10 -12 -27 -9 -38 6 -23 -27 -64 -58 -72 -22 -6 -25 3 -7 21 10 10 10
15 -2 22 -12 8 -16 1 -21 -33 -5 -35 -6 -31 -7 28 -3 133 45 280 105 323 31
22 61 32 81 26 8 -2 17 -4 22 -4z m-2227 -30 c-6 -23 9 -26 27 -5 24 29 29 4
10 -50 -26 -77 -98 -212 -117 -219 -8 -3 -19 -4 -24 0 -12 7 -12 51 0 59 13 7
51 125 55 168 3 39 21 67 41 67 8 0 11 -8 8 -20z m217 -177 c0 -7 -9 -17 -20
-23 -12 -6 -18 -16 -13 -23 5 -8 8 -8 11 2 3 8 8 7 19 -6 14 -17 14 -16 9 6
-3 13 -1 20 3 15 9 -10 41 -142 41 -170 0 -15 -12 -16 -122 -11 -101 4 -124 8
-135 23 -7 10 -13 25 -13 33 1 13 3 13 14 -2 14 -18 17 -18 94 3 l80 22 -11
36 c-6 20 -12 39 -13 41 -2 2 -31 -14 -66 -35 -35 -20 -67 -40 -73 -42 -19
-10 79 93 99 105 12 6 21 18 21 26 0 9 9 25 20 37 l19 21 18 -23 c10 -13 18
-28 18 -35z m2120 5 c-24 -9 -22 -35 2 -30 18 3 33 -36 33 -83 0 -23 -5 -31
-21 -33 -12 -2 -29 4 -38 13 -9 9 -16 12 -16 6 0 -6 -10 -11 -22 -11 -38 0
-68 12 -68 26 0 7 6 11 14 8 7 -3 29 1 49 9 29 13 34 19 30 41 -4 21 -8 24
-24 16 -10 -6 -21 -15 -24 -20 -3 -6 -11 -10 -16 -10 -6 0 11 27 38 61 l47 61
19 -23 c18 -23 18 -23 -3 -31z m-2600 -30 c16 -18 44 -60 61 -94 50 -94 36
-119 -97 -164 -63 -22 -83 -10 -23 14 44 18 44 36 -1 36 -16 0 -32 5 -35 10
-13 21 6 27 51 19 57 -11 77 1 67 40 -7 29 -42 66 -73 76 -22 7 -28 35 -6 35
7 0 19 -7 26 -15 13 -16 30 -20 30 -7 0 4 -11 20 -26 35 -14 15 -22 32 -19 37
9 15 13 13 45 -22z m2397 -201 c14 -9 43 -99 43 -135 0 -21 2 -23 15 -12 14
11 14 16 1 35 -17 27 -28 85 -15 85 5 0 14 -11 19 -25 11 -29 24 -34 15 -6 -8
25 9 35 25 16 7 -8 18 -15 24 -15 15 0 -46 49 -61 50 -15 0 -17 16 -3 25 13 8
92 -34 85 -45 -3 -5 0 -7 8 -4 7 2 26 -7 40 -22 27 -27 36 -54 17 -54 -5 0 -6
-7 -3 -17 4 -9 2 -14 -3 -10 -6 3 -18 -8 -28 -26 l-17 -32 20 24 c12 13 21 19
21 14 0 -6 -18 -31 -41 -56 -62 -71 -123 -72 -186 -5 -33 35 -72 128 -78 184
l-4 49 12 -55 12 -54 12 37 c6 20 9 46 6 57 -4 14 1 26 13 35 17 12 20 11 29
-8 5 -12 15 -26 22 -30z m-2039 -123 c48 -20 99 -44 112 -54 l25 -19 -29 -56
c-29 -57 -109 -145 -131 -145 -11 0 -41 109 -35 126 1 4 -3 10 -8 13 -8 5 -52
96 -52 109 0 3 16 -12 36 -34 19 -21 33 -33 29 -26 -3 7 0 12 8 12 8 0 20 7
27 15 11 13 10 14 -5 9 -10 -4 -16 -3 -13 2 3 5 -6 20 -20 34 -14 14 -21 18
-16 10 6 -12 5 -11 -7 1 -11 12 -20 14 -32 7 -12 -6 -17 -5 -17 5 0 37 20 35
128 -9z m-213 -8 c19 -29 40 -210 31 -262 -7 -34 -9 -36 -39 -30 -43 9 -99 47
-132 90 l-27 35 21 27 c12 15 21 31 21 36 0 14 90 128 100 128 5 0 17 -11 25
-24z m89 -38 c19 -29 76 -199 76 -226 0 -27 -9 -32 -70 -39 l-50 -6 0 32 c0
29 2 31 35 31 29 0 35 4 35 20 0 18 -4 20 -35 14 -23 -4 -35 -2 -35 5 0 6 14
14 30 18 32 6 36 14 19 44 -8 16 -13 18 -25 8 -8 -6 -17 -9 -21 -5 -4 3 2 13
13 21 15 11 17 17 8 32 -9 14 -8 21 5 30 14 11 14 12 -4 9 -11 -2 -14 -1 -7 1
19 7 14 21 -10 26 l-23 4 22 2 c13 0 29 -8 37 -21z m1764 -265 c45 -3 82 -10
82 -15 0 -4 -11 -6 -24 -2 -17 4 -27 0 -36 -13 -8 -13 -13 -14 -16 -5 -3 7
-23 12 -47 12 -28 0 -37 -3 -28 -9 22 -14 -14 -21 -114 -21 -49 0 -99 0 -110
0 -11 0 -92 3 -180 6 -88 3 -175 5 -192 6 -37 0 -46 17 -10 19 132 8 179 10
287 10 69 0 134 -3 144 -7 10 -4 27 -2 37 4 26 16 47 15 25 -1 -15 -11 -12
-13 26 -13 24 0 37 1 31 3 -7 3 -13 11 -13 19 0 16 17 17 138 7z m-986 -38
c59 -3 113 -7 120 -9 7 -3 25 -7 41 -10 20 -5 27 -12 27 -30 0 -14 3 -26 8
-29 4 -2 0 -2 -8 1 -8 3 -66 7 -129 9 -118 3 -136 7 -111 23 12 8 10 10 -7 10
-13 0 -23 -6 -24 -12 0 -10 -2 -10 -6 0 -2 6 -16 12 -29 12 -14 0 -24 6 -24
14 0 9 -17 19 -42 25 -41 10 -41 10 17 6 33 -3 108 -7 167 -10z m298 -139 c25
-1 54 -7 65 -14 17 -10 13 -12 -30 -13 -27 -1 -60 0 -72 1 -18 1 -22 -3 -17
-17 4 -12 3 -14 -3 -6 -7 9 -58 12 -199 11 -104 -1 -194 1 -201 5 -6 4 -13 2
-15 -5 -3 -7 -11 -9 -24 -3 -21 9 -33 10 -119 14 -54 2 -57 4 -30 12 17 6 69
8 117 5 63 -4 88 -2 92 7 5 9 7 9 12 0 6 -14 84 -18 84 -5 0 5 34 9 77 10 42
1 78 4 81 6 2 3 34 3 71 0 36 -3 86 -7 111 -8z m-1751 -13 c6 -10 11 -13 11
-6 0 8 15 8 57 -2 31 -7 63 -11 71 -8 8 3 18 0 23 -8 7 -9 8 -4 3 16 -4 24 -3
27 6 15 9 -11 13 -12 17 -2 7 18 60 15 67 -4 9 -24 7 -34 -8 -34 -7 0 -19 -6
-25 -14 -13 -16 -81 -17 -81 -2 0 6 -5 5 -12 -2 -17 -17 -28 -15 -28 4 0 9 -5
12 -11 8 -16 -9 -79 -14 -79 -6 0 4 -11 8 -25 8 -14 1 -25 -2 -25 -7 0 -16
-15 -9 -29 14 -13 21 -13 21 4 7 17 -14 17 -13 10 9 -6 20 -4 23 9 18 9 -4 16
-2 16 3 0 16 18 11 29 -7z"/>
<path d="M255 1272 c-6 -4 -10 -14 -10 -22 0 -12 -22 -15 -123 -18 l-122 -3 0
-68 c0 -65 1 -69 25 -75 14 -4 30 -4 36 0 17 10 149 10 152 0 7 -21 27 7 27
37 0 18 7 59 14 92 16 64 16 68 1 57z"/>
<path d="M310 1097 c0 -9 6 -22 13 -29 13 -13 15 -63 4 -92 -4 -9 -2 -16 4
-16 6 0 8 -4 5 -9 -3 -4 -1 -22 3 -39 8 -26 7 -30 -6 -25 -13 5 -14 3 -3 -18
7 -13 18 -27 24 -31 7 -5 7 -8 1 -8 -6 0 -11 -9 -12 -20 -1 -11 2 -20 7 -20 5
0 7 -7 4 -15 -4 -9 0 -15 7 -15 11 0 11 -3 -1 -10 -8 -5 -10 -10 -4 -10 7 0
17 -20 23 -44 8 -32 17 -45 33 -50 38 -10 366 -44 490 -51 l116 -6 6 28 c3 15
10 75 16 133 6 58 13 112 15 120 2 8 7 39 10 67 4 29 11 67 16 85 16 56 17 56
-98 57 -100 1 -189 5 -338 16 -33 3 -122 7 -197 11 -120 5 -138 4 -138 -9z"/>
<path d="M1166 949 c3 -5 14 -9 25 -9 11 0 17 -4 14 -10 -4 -6 5 -10 20 -10
15 0 24 -4 20 -10 -3 -5 0 -10 7 -10 7 -1 -2 -7 -19 -15 -18 -8 -33 -16 -33
-19 0 -16 24 -54 32 -50 5 3 15 0 23 -6 8 -6 19 -9 25 -5 7 4 9 -3 6 -22 -2
-15 -5 -43 -5 -60 l-1 -33 -54 0 c-72 0 -116 -10 -116 -26 0 -15 62 -29 87
-20 10 4 14 4 11 0 -4 -3 0 -13 8 -21 11 -11 12 -18 4 -29 -10 -11 11 -13 122
-13 73 1 156 5 183 11 28 5 63 9 78 9 20 0 27 4 25 16 -2 9 3 18 10 20 7 3 10
-1 6 -10 -3 -10 4 -17 23 -22 15 -3 31 -12 35 -18 4 -6 13 3 22 24 21 47 116
307 116 318 0 6 -19 12 -42 15 -77 9 -638 14 -632 5z"/>
</g>
</svg>
